<svg width="45" height="59" viewBox="0 0 45 59" fill="none" xmlns="http://www.w3.org/2000/svg">
<path d="M13.3728 27.6472C15.8552 25.1626 19.2214 23.7637 22.7336 23.757C26.2458 23.7504 29.6173 25.1365 32.1091 27.6117L38.3048 21.416C34.1707 17.285 28.565 14.9656 22.7207 14.9678C16.8765 14.97 11.2725 17.2937 7.14156 21.4278C3.01063 25.5619 0.691139 31.1676 0.693361 37.0119C0.695583 42.8561 3.01933 48.4601 7.1534 52.591L13.3609 46.3835C10.8842 43.8933 9.49595 40.5226 9.50039 37.0105C9.50483 33.4983 10.9016 30.1312 13.3846 27.6472H13.3728Z" fill="#03DBB2"/>
<path d="M38.3991 27.4791L32.2034 21.2834L19.2363 34.2458L25.4296 40.4415L38.3991 27.4791Z" fill="#03DBB2"/>
<path d="M22.1531 41.9222C23.0205 41.9222 23.8684 41.665 24.5896 41.1831C25.3108 40.7012 25.8729 40.0163 26.2049 39.215C26.5368 38.4136 26.6236 37.5318 26.4544 36.6811C26.2852 35.8304 25.8675 35.049 25.2542 34.4356C24.6409 33.8223 23.8594 33.4046 23.0087 33.2354C22.158 33.0662 21.2762 33.153 20.4748 33.485C19.6735 33.8169 18.9886 34.379 18.5067 35.1002C18.0248 35.8214 17.7676 36.6693 17.7676 37.5367C17.7676 38.6998 18.2296 39.8153 19.0521 40.6377C19.8745 41.4602 20.99 41.9222 22.1531 41.9222Z" fill="#03DBB2"/>
<path d="M35.1941 28.8817C36.0615 28.8817 36.9094 28.6245 37.6306 28.1426C38.3518 27.6607 38.9139 26.9758 39.2459 26.1744C39.5778 25.3731 39.6646 24.4913 39.4954 23.6406C39.3262 22.7899 38.9085 22.0084 38.2952 21.3951C37.6819 20.7818 36.9004 20.3641 36.0497 20.1949C35.199 20.0256 34.3172 20.1125 33.5159 20.4444C32.7145 20.7764 32.0296 21.3385 31.5477 22.0597C31.0658 22.7809 30.8086 23.6288 30.8086 24.4962C30.8086 25.6593 31.2706 26.7748 32.0931 27.5972C32.9155 28.4197 34.031 28.8817 35.1941 28.8817Z" fill="#03DBB2"/>
<path d="M40.3231 40.6166C41.1904 40.6166 42.0383 40.3594 42.7595 39.8775C43.4807 39.3956 44.0428 38.7106 44.3748 37.9093C44.7067 37.1079 44.7936 36.2261 44.6243 35.3754C44.4551 34.5247 44.0374 33.7433 43.4241 33.13C42.8108 32.5166 42.0294 32.0989 41.1786 31.9297C40.3279 31.7605 39.4461 31.8474 38.6448 32.1793C37.8434 32.5112 37.1585 33.0733 36.6766 33.7945C36.1947 34.5157 35.9375 35.3636 35.9375 36.231C35.9375 37.3941 36.3995 38.5096 37.222 39.3321C38.0444 40.1545 39.1599 40.6166 40.3231 40.6166Z" fill="#03DBB2"/>
<path d="M22.6691 10.5102C23.7085 10.5102 24.7245 10.202 25.5887 9.62452C26.4529 9.04709 27.1265 8.22636 27.5242 7.26612C27.9219 6.30587 28.026 5.24925 27.8233 4.22987C27.6205 3.21048 27.12 2.27412 26.385 1.53918C25.6501 0.804244 24.7137 0.303746 23.6944 0.100977C22.675 -0.101791 21.6184 0.00227684 20.6581 0.400021C19.6979 0.797766 18.8771 1.47132 18.2997 2.33552C17.7223 3.19971 17.4141 4.21573 17.4141 5.25508C17.4141 5.94519 17.55 6.62854 17.8141 7.26612C18.0782 7.90369 18.4653 8.48301 18.9532 8.97099C19.4412 9.45897 20.0205 9.84605 20.6581 10.1101C21.2957 10.3742 21.979 10.5102 22.6691 10.5102Z" fill="#03DBB2"/>
<path d="M32.0668 46.3456C29.5844 48.8301 26.2181 50.2291 22.706 50.2357C19.1938 50.2424 15.8223 48.8562 13.3305 46.3811L7.13477 52.5768C10.2634 55.693 14.2562 57.7973 18.5953 58.6168C22.9344 59.4363 27.4196 58.9331 31.4692 57.1726C35.5189 55.4121 38.9462 52.4754 41.3066 48.7434C43.667 45.0114 44.8517 40.6563 44.7069 36.2429H35.9406C36.043 38.1047 35.7508 39.9672 35.0832 41.7082C34.4157 43.4492 33.3877 45.0295 32.0668 46.3456Z" fill="#03DBB2"/>
</svg>
