<svg width="282" height="422" viewBox="0 0 282 422" fill="none" xmlns="http://www.w3.org/2000/svg">
<path d="M99.0002 215.868C118.383 196.469 144.666 185.546 172.089 185.494C199.512 185.442 225.836 196.265 245.292 215.59L293.668 167.215C261.389 134.961 217.62 116.85 171.988 116.868C126.357 116.885 82.6012 135.029 50.3472 167.307C18.0931 199.586 -0.017334 243.355 1.24495e-05 288.987C0.0173589 334.618 18.161 378.374 50.4396 410.628L98.9077 362.16C79.5698 342.716 68.7301 316.398 68.7648 288.976C68.7995 261.553 79.7056 235.263 99.0927 215.868H99.0002Z" fill="#F9F9F9"/>
<path d="M294.407 214.555L246.032 166.179L144.785 267.389L193.142 315.764L294.407 214.555Z" fill="#F9F9F9"/>
<path d="M167.559 327.326C174.331 327.326 180.951 325.318 186.583 321.555C192.214 317.793 196.602 312.445 199.194 306.188C201.786 299.931 202.464 293.046 201.143 286.404C199.822 279.761 196.56 273.66 191.771 268.871C186.983 264.082 180.881 260.821 174.239 259.5C167.597 258.179 160.712 258.857 154.455 261.448C148.198 264.04 142.85 268.429 139.087 274.06C135.325 279.691 133.316 286.311 133.316 293.084C133.316 302.166 136.924 310.875 143.346 317.297C149.767 323.718 158.477 327.326 167.559 327.326Z" fill="#F9F9F9"/>
<path d="M269.379 225.506C276.151 225.506 282.772 223.498 288.403 219.735C294.034 215.973 298.423 210.625 301.014 204.368C303.606 198.111 304.284 191.226 302.963 184.584C301.642 177.941 298.38 171.84 293.592 167.051C288.803 162.262 282.701 159.001 276.059 157.68C269.417 156.359 262.532 157.037 256.275 159.629C250.018 162.22 244.67 166.609 240.907 172.24C237.145 177.871 235.137 184.492 235.137 191.264C235.137 200.346 238.744 209.055 245.166 215.477C251.588 221.899 260.297 225.506 269.379 225.506Z" fill="#F9F9F9"/>
<path d="M309.434 317.133C316.206 317.133 322.826 315.124 328.458 311.362C334.089 307.599 338.477 302.251 341.069 295.994C343.661 289.738 344.339 282.853 343.018 276.21C341.697 269.568 338.435 263.467 333.646 258.678C328.858 253.889 322.756 250.628 316.114 249.306C309.472 247.985 302.587 248.663 296.33 251.255C290.073 253.847 284.725 258.236 280.962 263.867C277.2 269.498 275.191 276.118 275.191 282.891C275.191 291.972 278.799 300.682 285.221 307.103C291.642 313.525 300.352 317.133 309.434 317.133Z" fill="#F9F9F9"/>
<path d="M171.592 82.0627C179.707 82.0627 187.64 79.6563 194.388 75.1477C201.135 70.6391 206.394 64.2309 209.5 56.7334C212.605 49.2359 213.418 40.9859 211.835 33.0266C210.252 25.0673 206.344 17.7562 200.605 12.0178C194.867 6.27949 187.556 2.37163 179.597 0.788425C171.637 -0.794779 163.387 0.0177775 155.89 3.12334C148.392 6.22891 141.984 11.488 137.476 18.2356C132.967 24.9831 130.561 32.9161 130.561 41.0314C130.561 46.4197 131.622 51.7553 133.684 56.7334C135.746 61.7116 138.768 66.2348 142.578 70.0449C146.389 73.855 150.912 76.8774 155.89 78.9394C160.868 81.0014 166.204 82.0627 171.592 82.0627Z" fill="#F9F9F9"/>
<path d="M244.959 361.864C225.576 381.263 199.293 392.186 171.87 392.238C144.447 392.29 118.123 381.467 98.6666 362.141L50.291 410.517C74.7193 434.848 105.895 451.278 139.774 457.677C173.653 464.075 208.674 460.147 240.293 446.401C271.913 432.655 298.673 409.725 317.103 380.586C335.533 351.447 344.782 317.443 343.652 282.983H275.205C276.005 297.52 273.723 312.062 268.511 325.655C263.299 339.249 255.273 351.588 244.959 361.864Z" fill="#F9F9F9"/>
</svg>
