<svg width="174" height="51" viewBox="0 0 174 51" fill="none" xmlns="http://www.w3.org/2000/svg">
<g clip-path="url(#clip0_643_6217)">
<path d="M7.36697 13.105H0V45.0488H7.36697V13.105Z" fill="#03DBB2"/>
<path d="M37.0525 30.5273H29.6855V45.0485H37.0525V30.5273Z" fill="#03DBB2"/>
<path d="M18.5286 19.4487C21.4809 19.4476 24.3131 20.617 26.4046 22.7005C28.4961 24.7841 29.6763 27.6118 29.6865 30.564H37.0535C37.0024 25.6847 35.0284 21.0226 31.56 17.5904C28.0917 14.1581 23.4092 12.2329 18.5297 12.2329C13.6501 12.2329 8.96766 14.1581 5.49931 17.5904C2.03097 21.0226 0.0568896 25.6847 0.00585938 30.564H7.3708C7.38099 27.6118 8.56118 24.7841 10.6527 22.7005C12.7442 20.617 15.5764 19.4476 18.5286 19.4487Z" fill="#03DBB2"/>
<path d="M3.68551 48.6491C4.41444 48.6491 5.12699 48.4329 5.73307 48.028C6.33915 47.623 6.81153 47.0474 7.09048 46.374C7.36943 45.7005 7.44241 44.9595 7.30021 44.2446C7.158 43.5297 6.80699 42.873 6.29156 42.3575C5.77613 41.8421 5.11944 41.4911 4.40452 41.3489C3.6896 41.2067 2.94857 41.2797 2.27513 41.5586C1.60169 41.8376 1.02609 42.3099 0.62112 42.916C0.216151 43.5221 0 44.2347 0 44.9636C0 45.941 0.388294 46.8785 1.07946 47.5696C1.77063 48.2608 2.70805 48.6491 3.68551 48.6491Z" fill="#03DBB2"/>
<path d="M3.68551 16.8937C4.41444 16.8937 5.12699 16.6776 5.73307 16.2726C6.33915 15.8676 6.81153 15.292 7.09048 14.6186C7.36943 13.9452 7.44241 13.2041 7.30021 12.4892C7.158 11.7743 6.80699 11.1176 6.29156 10.6022C5.77613 10.0867 5.11944 9.73573 4.40452 9.59352C3.6896 9.45132 2.94857 9.5243 2.27513 9.80325C1.60169 10.0822 1.02609 10.5546 0.62112 11.1607C0.216151 11.7667 0 12.4793 0 13.2082C0 14.1857 0.388294 15.1231 1.07946 15.8143C1.77063 16.5054 2.70805 16.8937 3.68551 16.8937Z" fill="#03DBB2"/>
<path d="M33.3711 48.6452C34.1 48.6452 34.8125 48.429 35.4186 48.0241C36.0247 47.6191 36.4971 47.0435 36.776 46.3701C37.055 45.6966 37.128 44.9556 36.9858 44.2407C36.8435 43.5258 36.4925 42.8691 35.9771 42.3536C35.4617 41.8382 34.805 41.4872 34.0901 41.345C33.3751 41.2028 32.6341 41.2758 31.9607 41.5547C31.2872 41.8337 30.7116 42.306 30.3067 42.9121C29.9017 43.5182 29.6855 44.2308 29.6855 44.9597C29.6855 45.4437 29.7809 45.9229 29.9661 46.3701C30.1513 46.8172 30.4228 47.2235 30.765 47.5657C31.1072 47.908 31.5135 48.1794 31.9607 48.3647C32.4078 48.5499 32.8871 48.6452 33.3711 48.6452Z" fill="#03DBB2"/>
<path d="M81.2185 29.877H73.8516V44.6514H81.2185V29.877Z" fill="#03DBB2"/>
<path d="M62.6927 18.9137C65.6449 18.9137 68.4769 20.0837 70.5682 22.1674C72.6595 24.2512 73.8398 27.0788 73.8506 30.031H81.2175C81.1665 25.1518 79.1924 20.4897 75.7241 17.0574C72.2557 13.6252 67.5733 11.7 62.6937 11.7C57.8142 11.7 53.1317 13.6252 49.6634 17.0574C46.195 20.4897 44.221 25.1518 44.1699 30.031H51.5349C51.5456 27.0788 52.7259 24.2512 54.8172 22.1674C56.9086 20.0837 59.7405 18.9137 62.6927 18.9137Z" fill="#03DBB2"/>
<path d="M62.6927 41.1442C59.7405 41.1442 56.9086 39.9742 54.8172 37.8905C52.7259 35.8067 51.5456 32.9791 51.5349 30.0269H44.1699C44.221 34.9061 46.195 39.5682 49.6634 43.0005C53.1317 46.4327 57.8142 48.3579 62.6937 48.3579C67.5733 48.3579 72.2557 46.4327 75.7241 43.0005C79.1924 39.5682 81.1665 34.9061 81.2175 30.0269H73.8506C73.8398 32.9791 72.6595 35.8067 70.5682 37.8905C68.4769 39.9742 65.6449 41.1442 62.6927 41.1442Z" fill="#03DBB2"/>
<path d="M77.5371 48.57C78.2661 48.57 78.9787 48.3538 79.5848 47.9487C80.191 47.5437 80.6633 46.968 80.9422 46.2944C81.2211 45.6208 81.294 44.8797 81.1516 44.1647C81.0093 43.4498 80.658 42.7931 80.1424 42.2777C79.6268 41.7624 78.9699 41.4115 78.2548 41.2695C77.5398 41.1276 76.7987 41.2008 76.1253 41.4801C75.4519 41.7594 74.8764 42.2321 74.4717 42.8384C74.067 43.4447 73.8512 44.1575 73.8516 44.8865C73.8521 45.8636 74.2406 46.8005 74.9317 47.4913C75.6229 48.182 76.56 48.57 77.5371 48.57Z" fill="#03DBB2"/>
<path d="M100.372 23.6427C102.495 21.518 105.374 20.3217 108.377 20.316C111.381 20.3103 114.264 21.4957 116.395 23.6123L121.693 18.314C118.158 14.7814 113.364 12.7979 108.366 12.7998C103.368 12.8017 98.5761 14.7889 95.0435 18.3242C91.5109 21.8595 89.5274 26.6533 89.5293 31.651C89.5312 36.6488 91.5184 41.4411 95.0537 44.9737L100.362 39.6653C98.2441 37.5357 97.0569 34.6533 97.0607 31.6498C97.0645 28.6464 98.259 25.7669 100.382 23.6427H100.372Z" fill="#03DBB2"/>
<path d="M121.774 23.499L116.476 18.2007L105.387 29.2856L110.683 34.5839L121.774 23.499Z" fill="#03DBB2"/>
<path d="M107.881 35.8503C108.623 35.8503 109.348 35.6304 109.965 35.2183C110.582 34.8062 111.062 34.2204 111.346 33.5352C111.63 32.8499 111.704 32.0958 111.559 31.3683C111.415 30.6408 111.058 29.9726 110.533 29.4481C110.009 28.9236 109.34 28.5664 108.613 28.4217C107.885 28.277 107.131 28.3512 106.446 28.6351C105.761 28.9189 105.175 29.3996 104.763 30.0164C104.351 30.6331 104.131 31.3582 104.131 32.1C104.131 33.0946 104.526 34.0485 105.229 34.7519C105.933 35.4552 106.887 35.8503 107.881 35.8503Z" fill="#03DBB2"/>
<path d="M119.034 24.6985C119.775 24.6985 120.5 24.4785 121.117 24.0664C121.734 23.6543 122.215 23.0686 122.498 22.3833C122.782 21.698 122.857 20.9439 122.712 20.2164C122.567 19.489 122.21 18.8207 121.685 18.2962C121.161 17.7717 120.493 17.4145 119.765 17.2698C119.038 17.1251 118.284 17.1994 117.598 17.4832C116.913 17.7671 116.327 18.2478 115.915 18.8645C115.503 19.4813 115.283 20.2064 115.283 20.9481C115.283 21.9428 115.678 22.8967 116.382 23.6C117.085 24.3033 118.039 24.6985 119.034 24.6985Z" fill="#03DBB2"/>
<path d="M123.418 34.7339C124.16 34.7339 124.885 34.5139 125.502 34.1018C126.119 33.6897 126.599 33.104 126.883 32.4187C127.167 31.7334 127.241 30.9793 127.097 30.2518C126.952 29.5244 126.595 28.8561 126.07 28.3316C125.546 27.8071 124.877 27.4499 124.15 27.3052C123.422 27.1605 122.668 27.2348 121.983 27.5186C121.298 27.8025 120.712 28.2832 120.3 28.8999C119.888 29.5167 119.668 30.2418 119.668 30.9835C119.668 31.9782 120.063 32.9321 120.766 33.6354C121.47 34.3387 122.424 34.7339 123.418 34.7339Z" fill="#03DBB2"/>
<path d="M108.322 8.98787C109.211 8.98787 110.08 8.7243 110.819 8.2305C111.558 7.7367 112.134 7.03485 112.474 6.21369C112.814 5.39253 112.903 4.48895 112.73 3.61721C112.556 2.74547 112.128 1.94473 111.5 1.31624C110.871 0.687757 110.071 0.259751 109.199 0.0863517C108.327 -0.0870477 107.423 0.00194706 106.602 0.342082C105.781 0.682217 105.079 1.25822 104.585 1.99724C104.092 2.73626 103.828 3.60512 103.828 4.49394C103.828 5.08409 103.944 5.66846 104.17 6.21369C104.396 6.75892 104.727 7.25433 105.144 7.67163C105.562 8.08893 106.057 8.41995 106.602 8.64579C107.148 8.87163 107.732 8.98787 108.322 8.98787Z" fill="#03DBB2"/>
<path d="M116.358 39.6328C114.235 41.7575 111.356 42.9538 108.353 42.9595C105.35 42.9652 102.466 41.7798 100.335 39.6632L95.0371 44.9615C97.7126 47.6263 101.127 49.4259 104.838 50.1266C108.548 50.8274 112.384 50.3972 115.847 48.8916C119.31 47.3861 122.241 44.8748 124.259 41.6833C126.278 38.4919 127.291 34.7676 127.167 30.9934H119.671C119.758 32.5856 119.508 34.1782 118.938 35.6671C118.367 37.1559 117.488 38.5074 116.358 39.6328Z" fill="#03DBB2"/>
<path d="M173.236 23.6672H165.869V43.9284H173.236V23.6672Z" fill="#03DBB2"/>
<path d="M158.076 22.9822H150.709V31.4514H158.076V22.9822Z" fill="#03DBB2"/>
<path d="M169.551 47.5854C170.28 47.5854 170.992 47.3692 171.598 46.9643C172.204 46.5593 172.677 45.9837 172.956 45.3102C173.235 44.6368 173.308 43.8958 173.165 43.1809C173.023 42.4659 172.672 41.8092 172.157 41.2938C171.641 40.7784 170.985 40.4274 170.27 40.2852C169.555 40.143 168.814 40.216 168.14 40.4949C167.467 40.7738 166.891 41.2462 166.486 41.8523C166.081 42.4584 165.865 43.1709 165.865 43.8999C165.865 44.3839 165.961 44.8631 166.146 45.3102C166.331 45.7574 166.602 46.1637 166.945 46.5059C167.287 46.8481 167.693 47.1196 168.14 47.3048C168.588 47.49 169.067 47.5854 169.551 47.5854Z" fill="#03DBB2"/>
<path d="M154.394 35.1066C155.123 35.1066 155.836 34.8905 156.442 34.4855C157.048 34.0805 157.521 33.5049 157.799 32.8315C158.078 32.1581 158.151 31.417 158.009 30.7021C157.867 29.9872 157.516 29.3305 157.001 28.8151C156.485 28.2996 155.828 27.9486 155.114 27.8064C154.399 27.6642 153.658 27.7372 152.984 28.0161C152.311 28.2951 151.735 28.7675 151.33 29.3735C150.925 29.9796 150.709 30.6922 150.709 31.4211C150.709 31.9051 150.804 32.3843 150.99 32.8315C151.175 33.2786 151.446 33.6849 151.788 34.0272C152.131 34.3694 152.537 34.6409 152.984 34.8261C153.431 35.0113 153.911 35.1066 154.394 35.1066Z" fill="#03DBB2"/>
<path d="M161.972 12.562C160.493 12.562 159.028 12.8534 157.661 13.4196C156.295 13.9857 155.053 14.8155 154.007 15.8616C152.961 16.9077 152.132 18.1496 151.566 19.5164C151 20.8831 150.709 22.348 150.709 23.8272H158.066C158.066 22.7934 158.477 21.8018 159.208 21.0708C159.939 20.3397 160.93 19.929 161.964 19.929C162.998 19.929 163.989 20.3397 164.721 21.0708C165.452 21.8018 165.862 22.7934 165.862 23.8272H173.227C173.228 22.348 172.936 20.8831 172.37 19.5164C171.805 18.1496 170.975 16.9077 169.929 15.8616C168.883 14.8155 167.641 13.9857 166.275 13.4196C164.908 12.8534 163.443 12.562 161.964 12.562H161.972Z" fill="#03DBB2"/>
<path d="M135.547 44.0459H142.914V23.7158H135.543L135.547 44.0459Z" fill="#03DBB2"/>
<path d="M139.232 47.6828C139.961 47.6828 140.674 47.4666 141.28 47.0617C141.886 46.6567 142.358 46.0811 142.637 45.4077C142.916 44.7342 142.989 43.9932 142.847 43.2783C142.705 42.5634 142.354 41.9067 141.838 41.3912C141.323 40.8758 140.666 40.5248 139.951 40.3826C139.236 40.2404 138.495 40.3134 137.822 40.5923C137.149 40.8713 136.573 41.3436 136.168 41.9497C135.763 42.5558 135.547 43.2684 135.547 43.9973C135.547 44.9747 135.935 45.9122 136.626 46.6033C137.318 47.2945 138.255 47.6828 139.232 47.6828Z" fill="#03DBB2"/>
<path d="M146.812 12.6592C149.797 12.6624 152.659 13.8504 154.769 15.9623C156.879 18.0741 158.065 20.9371 158.065 23.9224H150.708C150.725 23.1404 150.507 22.3713 150.082 21.7149C149.656 21.0586 149.043 20.5454 148.322 20.2419C147.601 19.9385 146.806 19.8588 146.039 20.0133C145.272 20.1677 144.569 20.5492 144.022 21.1081C143.66 21.4805 143.375 21.9204 143.183 22.4028C142.993 22.8863 142.902 23.403 142.914 23.9224H135.547C135.547 22.4431 135.838 20.9783 136.404 19.6117C136.971 18.245 137.8 17.0033 138.847 15.9574C139.893 14.9115 141.134 14.0819 142.501 13.516C143.868 12.95 145.333 12.6589 146.812 12.6592Z" fill="#03DBB2"/>
</g>
<defs>
<clipPath id="clip0_643_6217">
<rect width="173.237" height="50.4544" fill="white"/>
</clipPath>
</defs>
</svg>
